<?xml version="1.0" encoding="utf-8"?>
<!-- Generator: Adobe Illustrator 19.2.0, SVG Export Plug-In . SVG Version: 6.00 Build 0)  -->
<!DOCTYPE svg PUBLIC "-//W3C//DTD SVG 1.1//EN" "http://www.w3.org/Graphics/SVG/1.1/DTD/svg11.dtd">
<svg version="1.1" id="Ebene_1" xmlns="http://www.w3.org/2000/svg" xmlns:xlink="http://www.w3.org/1999/xlink" x="0px" y="0px"
	 viewBox="0 0 675 293.4" style="enable-background:new 0 0 675 293.4;" xml:space="preserve">
<style type="text/css">
	.st0{fill:#0039A8;}
</style>
<g id="links_oben">
</g>
<g id="dst">
</g>
<g id="links_unten">
</g>
<g id="links_mitte">
</g>
<g id="rechts_mitte">
</g>
<g id="rechts_unten">
</g>
<g id="rechts_oben">
	<g>
		<path class="st0" d="M238.4,154.7c-2.5,4.9-0.8,11,2.7,15c17.2,20.3,42.9,32.2,69.3,33.2c22.2,1,44.2-4.5,64.8-12.3
			c2.8-1,5.4-3.9,4.1-7c-2.1-4.8-7.1-7.5-11.8-9.4c-5.7-1.9-12.1-3.5-18-1.3c-12.3,4.6-25.4,7.7-38.6,6.5
			c-16.9-1.5-32.3-10.7-43.4-23.2c-4.6-5-11.4-7.5-18.1-7.7C245,148.6,240.4,150.7,238.4,154.7"/>
		<g>
			<path class="st0" d="M124.7,72.5c0,13-2.8,24.6-8.5,34.9s-12.9,18.2-21.6,23.7c-7.2,4.7-15.1,7.7-23.7,9c-8.5,1.3-17.6,2-27.2,2
				H0V2.5h43.3c9.8,0,19,0.6,27.6,1.9S87.5,8.7,95,13.5c9.2,5.9,16.4,13.8,21.7,23.8C122,47.2,124.7,59,124.7,72.5z M88.7,72.2
				c0-9.2-1.6-17-4.7-23.6c-3.2-6.5-8-11.6-14.6-15.3c-4.8-2.6-9.7-4.1-15-4.3c-5.2-0.2-11.5-0.4-18.7-0.4H35V116h0.7
				c7.9,0,14.5-0.1,19.9-0.4s10.5-2,15.4-5c5.7-3.6,10.1-8.6,13.1-15C87.2,89.1,88.7,81.4,88.7,72.2z"/>
			<path class="st0" d="M188.5,144.6c-10.7,0-20.1-1-28.2-3.1c-8.1-2.1-15.6-4.6-22.5-7.7v-33.2h3.2c7,5.9,14.7,10.5,23.2,13.7
				c8.4,3.2,16.6,4.8,24.6,4.8c2,0,4.6-0.2,7.9-0.7c3.3-0.4,5.9-1.1,7.9-2.1c2.4-1.1,4.5-2.5,6.2-4.5c1.7-1.9,2.5-4.4,2.5-7.5
				c0-3.5-1.4-6.3-4.1-8.5c-2.8-2.2-6-3.8-9.8-4.8c-4.8-1.2-9.8-2.4-15.2-3.6c-5.4-1.1-10.5-2.5-15.1-4.1
				c-10.8-3.8-18.6-8.9-23.2-15.4c-4.7-6.4-7-14.5-7-24.2c0-13.1,5.5-23.6,16.6-31.7c10.8-8,24.6-12,41.2-12
				c8.3,0,16.6,0.8,24.8,2.5s15.6,4,22.1,6.8v31.9h-3.1c-5.2-4.4-11.5-8.2-19-11.2c-7.5-3.1-15.1-4.6-23-4.6c-3.1,0-5.8,0.2-8.2,0.7
				c-2.4,0.4-5,1.3-7.7,2.5c-2.2,1-4.1,2.5-5.7,4.5c-1.6,2-2.4,4.2-2.4,6.6c0,3.6,1.3,6.4,3.8,8.5s7.4,4,14.7,5.7
				c4.7,1.1,9.2,2.1,13.5,3.1s9,2.4,13.9,4.1c9.7,3.5,16.9,8.2,21.6,14.1c4.7,5.9,7.1,13.7,7.1,23.4c0,13.9-5.5,25-16.4,33.5
				C221.8,140.4,207.1,144.6,188.5,144.6z"/>
			<path class="st0" d="M293.8,142.1v-113h-41.2V2.5h117.5v26.6h-41.2v113H293.8z"/>
		</g>
		<path class="st0" d="M149.6,204.7c-5.5,2.2-9.4,7.7-10,13.6c0,1.2-0.1,2.5-0.1,3.8v0.1c0,2.2,0.2,4.4,1.1,6.4
			c1.3,3.5,3.9,6.2,6.1,9.1c19.3,23.1,45,41.3,74.1,49.8c11.7,3.4,23.8,5.4,36,5.9c30.9,1.3,61.5-5.8,90.7-15.3
			c47.1-15.4,91.8-37.4,139.4-51.3c1.4-0.6,3.7-1,3.4-3c-0.1-1.9-2.5-2.2-3.8-2.9c-8.3-2.4-17.3-3.2-25.7-1.2
			c-24.2,7-47.7,15.9-71.5,24.1c-25.7,8.9-51.9,17.2-79,20.9c-20.9,2.8-42.3,2.5-62.8-2.8c-29-7.4-54.8-24.8-74.2-47.3
			c-2.1-2.5-3.9-5.2-6.5-7.2c-3.1-2.4-7.1-3.8-11-3.8C153.7,203.4,151.6,203.8,149.6,204.7"/>
		<path class="st0" d="M201.2,176.8c-5.2,5.5-4.4,14.8,0.4,20.3c17.9,21.6,43.1,37.2,70.6,42.8c6.3,1.3,12.7,2.2,19.1,2.6
			c30.9,2,61.5-5.5,90.8-14.7c14.3-4.5,28.4-9.5,42.6-14.3c2.2-0.8,4.8-1.7,5.9-4c0.4-3.4-3.1-5.3-5.6-6.7c-8.1-3.8-17.9-5.4-26.5-2
			c-22.7,7.7-45.9,15.1-69.9,17.6c-16.4,1.7-33.2,0.5-48.9-4.5c-19-6.1-36.2-17.5-49.5-32.4c-3.1-4.2-7.5-7.4-12.6-8.7
			c-1.6-0.4-3.3-0.7-5-0.7C208.3,172.1,204.1,173.6,201.2,176.8"/>
		<path class="st0" d="M432.2,156.8c-14.3,4.5-28.4,9.5-42.6,14.3c-2.2,0.8-4.8,1.7-5.8,4c-0.4,3.4,3.1,5.3,5.6,6.7
			c8.1,3.8,17.9,5.4,26.5,2c22.7-7.7,45.8-15.2,69.9-17.6c16.4-1.7,33.2-0.5,48.9,4.5c19,6.1,36.2,17.5,49.5,32.4
			c3.1,4.2,7.5,7.4,12.6,8.7c5.6,1.5,12.3,0.5,16.3-4c5.2-5.5,4.5-14.8-0.4-20.3c-17.9-21.6-43.1-37.2-70.6-42.8
			c-6.3-1.3-12.7-2.2-19.1-2.6c-3.4-0.2-6.9-0.3-10.3-0.3C485.3,141.8,458.3,148.7,432.2,156.8"/>
		<path class="st0" d="M437.4,193.9c-2.8,1-5.4,3.9-4.1,7c2.1,4.8,7.1,7.5,11.8,9.4c5.7,1.9,12.1,3.5,18,1.3
			c12.3-4.6,25.4-7.7,38.6-6.5c16.9,1.5,32.3,10.7,43.4,23.2c4.6,5,11.4,7.4,18.1,7.7c4.4-0.2,9-2.2,11-6.3c2.5-4.9,0.8-11-2.7-15
			c-17.1-20.2-42.9-32.3-69.3-33.2c-1.8-0.1-3.5-0.1-5.2-0.1C476.5,181.4,456.4,186.6,437.4,193.9"/>
		<path class="st0" d="M467.1,106.6C420,122,375.2,144,327.6,157.9c-1.3,0.6-3.7,1.1-3.4,3c0.1,1.9,2.5,2.2,3.8,2.9
			c8.3,2.4,17.3,3.2,25.7,1.2c24.1-7,47.7-15.9,71.5-24.1c25.7-8.9,51.9-17.2,79-20.9c20.9-2.9,42.3-2.5,62.8,2.8
			c28.9,7.4,54.8,24.7,74.2,47.3c2.1,2.5,3.9,5.2,6.5,7.2c4.8,3.7,11.6,5,17.3,2.5c5.5-2.2,9.4-7.7,10-13.6c0.1-3.4,0.4-7-1-10.2
			c-1.3-3.5-3.9-6.2-6.1-9.1c-19.3-23.1-45-41.3-74.1-49.8c-11.7-3.4-23.8-5.4-36-5.9c-2.5-0.1-5-0.2-7.4-0.2
			C521.9,91.2,493.9,97.9,467.1,106.6"/>
	</g>
</g>
</svg>
